<ttFont>
          <CharString index="0">
            rmoveto
            -18 11 -14 20 24 18 20 22 18 -11 14 -20 -24 -18 -20 -22 vhcurveto
            193 hmoveto
            -18 12 -14 19 24 19 20 22 18 -12 14 -20 -23 -19 -20 -22 vhcurveto
            endchar
          </CharString>
          <CharString index="1">
            -78 callsubr
            28 43 -16 -12 23 hvcurveto
            -37 -220 -90 callsubr
            60 362 rlineto
            -53 hlineto
            -6 -20 rlineto
            13 -24 -50 16 -26 -74 callsubr
            return
          </CharString>
          <CharString index="2">
            309 6 callsubr
            -161 -63 -137 -192 -31 hvcurveto
            -202 -35 18 -144 156 hhcurveto
            163 62 148 197 34 hvcurveto
            190 33 -16 140 -160 hhcurveto
            -199 -329 -84 callsubr
            -147 -26 -44 -148 -126 hhcurveto
            -125 9 148 147 26 hvcurveto
            return
          </CharString>
          <CharString index="3">
            227 -10 rmoveto
            121 66 85 162 23 hvcurveto
            17 166 -57 79 -120 -1 rrcurveto
            -121 -66 -85 -162 -23 hvcurveto
            -17 -166 56 -79 121 1 rrcurveto
            48 440 rmoveto
            89 40 -71 -123 -20 hvcurveto
            -121 -20 -47 -73 -87 hhcurveto
            -89 -1 -41 71 20 123 20 121 45 75 90 -1 rrcurveto
            return
          </CharString>
          <CharString index="4">
            288 481 rmoveto
            -164 -48 -163 -136 -119 54 -72 111 42 64 15 16 42 hvcurveto
            -9 50 rlineto
            -14 -39 -58 -15 -36 hhcurveto
            -93 -22 54 92 -2 hvcurveto
            127 17 rlineto
            110 15 56 66 75 vvcurveto
            74 -53 45 -82 vhcurveto
            -155 -245 rmoveto
            102 8 43 95 98 hhcurveto
            57 32 -25 -43 -57 -39 -43 -82 -12 hvcurveto
            return
          </CharString>
          <CharString index="5">
            hstemhm
            -31 callsubr
            hintmask 11001100
            -105 callsubr
            hintmask 00110000
            return
          </CharString>
          <CharString index="6">
            434 hmoveto
            -75 5 callsubr
            -96 hlineto
            -293 -39 callsubr
            57 hlineto
            66 151 -20 callsubr
            17 -151 rlineto
            -260 201 rmoveto
            180 407 rlineto
            14 hlineto
            43 -407 rlineto
            return
          </CharString>
          <CharString index="7">
            hstemhm
            337 53 hintmask 00111000
            -106 callsubr
            hintmask 11000000
            return
          </CharString>
          <CharString index="8">
            hstemhm
            59 57 268 57 hintmask 11001100
            -104 callsubr
            hintmask 00110000
            return
          </CharString>
          <CharString index="9">
            rmoveto
            -16 -20 -30 -24 -17 -42 -16 53 -62 hhcurveto
            -33 -36 -25 -29 -35 hvcurveto
            23 -34 rlineto
            17 21 31 24 21 47 13 -54 60 hhcurveto
            28 35 26 29 32 hvcurveto
            endchar
          </CharString>
          <CharString index="10">
            341 hmoveto
            45 hlineto
            78 475 -41 callsubr
            -63 -382 rlineto
            -21 -43 -62 -29 -46 hhcurveto
            -59 -25 50 62 8 hvcurveto
            52 320 -41 callsubr
            -52 -320 rlineto
            -98 -12 41 -66 93 hhcurveto
            46 59 26 24 46 hvcurveto
            return
          </CharString>
          <CharString index="11">
            491 655 rmoveto
            -52 hlineto
            -76 -462 rlineto
            -87 -15 -51 -67 -94 hhcurveto
            -101 -22 68 86 15 hvcurveto
            75 462 -41 callsubr
            -76 -465 rlineto
            -119 -19 43 -80 130 hhcurveto
            119 77 70 129 23 hvcurveto
            return
          </CharString>
          <CharString index="12">
            rmoveto
            57 hlineto
            111 122 74 -122 -5 callsubr
            -102 162 rlineto
            -45 hlineto
            endchar
          </CharString>
          <CharString index="13">
            hintmask 11000000
            -101 callsubr
            return
          </CharString>
          <CharString index="14">
            -20 hstemhm
            70 57 252 57 hintmask 11100110
            -103 callsubr
            hintmask 00011000
            return
          </CharString>
          <CharString index="15">
            rmoveto
            0 -59 -12 -19 -122 10 56 114 14 vhcurveto
            44 265 rlineto
            -47 -26 0 -47 hhcurveto
            8 50 rlineto
            172 hlineto
            -50 -313 rlineto
            -93 -11 -14 -27 75 hhcurveto
            19 26 5 5 21 hvcurveto
            return
          </CharString>
          <CharString index="16">
            378 hmoveto
            8 50 rlineto
            -274 hlineto
            42 257 rlineto
            246 -61 callsubr
            -246 hlineto
            41 248 rlineto
            270 -61 callsubr
            -322 hlineto
            -108 -39 callsubr
            return
          </CharString>
          <CharString index="17">
            rlineto
            -29 -16 -87 -107 -40 hhcurveto
            1 -53 rmoveto
            48 54 59 43 25 hvcurveto
            8 -101 50 6 -2 112 return
          </CharString>
          <CharString index="18">
            hstemhm
            -94 callsubr
            hintmask 00110000
            return
          </CharString>
          <CharString index="19">
            305 605 rmoveto
            103 -61 callsubr
            -264 -47 callsubr
            109 hlineto
            -91 -555 rlineto
            -106 hlineto
            -8 -50 rlineto
            265 -61 callsubr
            -107 hlineto
            return
          </CharString>
          <CharString index="20">
            365 2 -92 callsubr
            return
          </CharString>
          <CharString index="21">
            -20 hstemhm
            75 53 242 53 hintmask 11001100
            -97 callsubr
            hintmask 00110000
            return
          </CharString>
          <CharString index="22">
            -20 hstemhm
            54 55 282 55 hintmask 11001100
            -96 callsubr
            hintmask 00110000
            return
          </CharString>
          <CharString index="23">
            rmoveto
            124 21 38 154 131 hhcurveto
            131 -13 -154 -124 -22 hvcurveto
            return
          </CharString>
          <CharString index="24">
            -2 callsubr
            159 -21 139 -20 -102 callsubr
            return
          </CharString>
          <CharString index="25">
            -43 callsubr
            118 -21 139 -93 callsubr
            return
          </CharString>
          <CharString index="26">
            -38 callsubr
            118 -21 139 -20 -100 callsubr
            return
          </CharString>
          <CharString index="27">
            -10 -33 callsubr
            -105 callsubr
            return
          </CharString>
          <CharString index="28">
            -20 hstemhm
            82 55 hintmask 11100100
            -91 callsubr
            hintmask 00011000
            return
          </CharString>
          <CharString index="29">
            205 44 rmoveto
            -74 -23 66 70 113 58 135 125 return
          </CharString>
          <CharString index="30">
            -37 callsubr
            118 -21 139 -20 -99 callsubr
            return
          </CharString>
          <CharString index="31">
            -43 callsubr
            hstem
            70 57 252 57 cntrmask 11100000
            -103 callsubr
            return
          </CharString>
          <CharString index="32">
            -20 hstemhm
            218 55 hintmask 11001000
            -88 callsubr
            hintmask 00110000
            return
          </CharString>
          <CharString index="33">
            hhcurveto
            -167 -71 -174 -134 -112 49 -70 105 hvcurveto
            return
          </CharString>
          <CharString index="34">
            -38 callsubr
            hstem
            337 53 vstem
            -106 callsubr
            return
          </CharString>
          <CharString index="35">
            -37 callsubr
            hstem
            59 57 268 57 vstem
            -104 callsubr
            return
          </CharString>
          <CharString index="36">
            rmoveto
            17 -48 165 92 -18 54 rlineto
            endchar
          </CharString>
          <CharString index="37">
            rmoveto
            -27 -49 164 -92 25 43 rlineto
            endchar
          </CharString>
          <CharString index="38">
            rmoveto
            50 -35 31 -57 -69 -51 -43 -68 -50 35 -30 55 71 51 42 68 vhcurveto
            -170 -25 rmoveto
            42 28 25 44 35 19 -17 -30 -41 -28 -26 -44 -35 -19 18 29 vhcurveto
            endchar
          </CharString>
          <CharString index="39">
            -15 callsubr
            189 -21 139 -85 callsubr
            return
          </CharString>
          <CharString index="40">
            -24 callsubr
            144 -21 139 -86 callsubr
            return
          </CharString>
          <CharString index="41">
            370 70 rmoveto
            -13 -42 -58 -14 -44 hhcurveto
            -103 -46 78 -18 callsubr
            89 110 hhcurveto
            33 34 -5 -11 26 hvcurveto
            -14 -89 -12 callsubr
            22 132 rlineto
            12 -34 -66 13 -46 hhcurveto
            -152 -82 -107 -19 callsubr
            -91 140 hhcurveto
            48 65 13 15 45 hvcurveto
            return
          </CharString>
          <CharString index="42">
            358 320 rmoveto
            52 hlineto
            23 140 rlineto
            11 -31 -58 10 -35 hhcurveto
            -126 -67 -86 -158 -23 hvcurveto
            -151 -22 54 -95 126 hhcurveto
            43 51 14 16 42 hvcurveto
            -8 50 rlineto
            -14 -39 -47 -15 -36 hhcurveto
            -95 -36 82 113 18 hvcurveto
            117 19 45 76 94 hhcurveto
            22 26 -5 -6 25 hvcurveto
            return
          </CharString>
          <CharString index="43">
            -44 callsubr
            169 -21 139 -79 callsubr
            return
          </CharString>
          <CharString index="44">
            -15 callsubr
            hstem
            54 55 282 55 vstem
            -96 callsubr
            return
          </CharString>
          <CharString index="45">
            -36 callsubr
            -97 callsubr
            return
          </CharString>
          <CharString index="46">
            hlineto
            8 50 rlineto
            return
          </CharString>
          <CharString index="47">
            -42 callsubr
            623 -21 139 -20 -89 callsubr
            return
          </CharString>
          <CharString index="48">
            -25 callsubr
            169 -21 139 -75 callsubr
            return
          </CharString>
          <CharString index="49">
            -107 -206 51 hstem
            30 60 275 60 vstem
            94 -11 callsubr
            75 -482 -28 -69 -27 -61 -34 -16 -73 -2 rlinecurve
            -6 -51 112 3 37 19 47 103 rlinecurve
            253 556 rlineto
            -56 hlineto
            -179 -404 rlineto
            -5 hlineto
            -59 404 rlineto
            return
          </CharString>
          <CharString index="50">
            -26 callsubr
            -87 callsubr
            return
          </CharString>
          <CharString index="51">
            -50 callsubr
            hintmask 10001000
            -52 callsubr
          </CharString>
          <CharString index="52">
            -44 callsubr
            hstem
            82 55 vstem
            -91 callsubr
            return
          </CharString>
          <CharString index="53">
            175 -11 callsubr
            -48 hlineto
            -78 -475 -12 callsubr
            64 385 rlineto
            20 46 62 24 46 hhcurveto
            59 22 -50 -62 -8 hvcurveto
            -53 -317 rlineto
            53 hlineto
            50 317 rlineto
            98 12 -36 66 -93 hhcurveto
            -42 -63 -24 -22 -47 hvcurveto
            return
          </CharString>
          <CharString index="54">
            -42 callsubr
            hstem
            -101 callsubr
            return
          </CharString>
          <CharString index="55">
            -40 -21 -19 -41 -11 -28 3 2 -7 vhcurveto
            -12 -43 rlineto
            -3 16 31 -4 15 hhcurveto
            61 48 40 70 hvcurveto
            endchar
          </CharString>
          <CharString index="56">
            68 -39 45 -69 -81 -59 -63 -79 -66 41 -49 69 80 58 63 81 vhcurveto
            -113 71 rmoveto
            45 18 -33 -42 -56 -29 -41 -55 -42 -17 callsubr
            51 hvcurveto
            326 -469 rmoveto
            68 -40 45 -69 vhcurveto
            return
          </CharString>
          <CharString index="57">
            rmoveto
            50 -32 25 -48 -16 -29 -4 -4 -16 vhcurveto
            -1 -41 rlineto
            2 11 22 3 11 hhcurveto
            31 16 -11 -26 hvcurveto
            return
          </CharString>
          <CharString index="58">
            -25 callsubr
            hstem
            218 55 vstem
            -88 callsubr
            return
          </CharString>
          <CharString index="59">
            -35 callsubr
            223 55 vstem
            222 283 rmoveto
            252 372 rlineto
            -63 hlineto
            -205 -315 rlineto
            -5 hlineto
            -106 315 rlineto
            -61 hlineto
            133 -372 -45 -283 rlineto
            55 hlineto
            return
          </CharString>
          <CharString index="60">
            hlineto
            -8 -50 rlineto
            return
          </CharString>
          <CharString index="61">
            340 hmoveto
            51 hlineto
            107 655 -41 callsubr
            -76 -460 -211 460 rlineto
            -51 hlineto
            -108 -39 callsubr
            53 hlineto
            91 558 212 -455 rlineto
            return
          </CharString>
          <CharString index="62">
            -60 -529 -44 -88 0 vvcurveto
            53 hlineto
            0 45 84 60 533 vhcurveto
            return
          </CharString>
          <CharString index="63">
            0 48 261 48 250 48 return
          </CharString>
          <CharString index="64">
            -9 52 168 50 168 52 return
          </CharString>
          <CharString index="65">
            21 -21 151 50 return
          </CharString>
          <CharString index="66">
            rlineto
            -52 hlineto
            return
          </CharString>
          <CharString index="67">
            rmoveto
            -31 -3 22 -14 19 hhcurveto
            26 18 14 31 4 hvcurveto
            31 3 -20 11 -20 hhcurveto
            -23 -23 -11 -31 -3 hvcurveto
            return
          </CharString>
          <CharString index="68">
            -655 rlineto
            return
          </CharString>
          <CharString index="69">
            -9 53 384 53 return
          </CharString>
          <CharString index="70">
            -9 52 386 52 return
          </CharString>
          <CharString index="71">
            -24 callsubr
            hstem
            75 53 242 53 vstem
            return
          </CharString>
          <CharString index="72">
            21 -21 655 -20 hstem
            return
          </CharString>
          <CharString index="73">
            -32 callsubr
            50 rlineto
            -7 -20 -46 -12 -30 hhcurveto
            -75 return
          </CharString>
          <CharString index="74">
            -13 callsubr
            hstem
            -31 callsubr
            vstem
            return
          </CharString>
          <CharString index="75">
            -56 122 hhcurveto
            28 55 12 9 25 hvcurveto
            -6 return
          </CharString>
          <CharString index="76">
            40 59 302 59 return
          </CharString>
          <CharString index="77">
            -49 69 80 59 63 81 hvcurveto
            -113 71 rmoveto
            45 17 -33 -42 -56 -29 -41 -54 return
          </CharString>
          <CharString index="78">
            -16 callsubr
            95 89 hstem
            115 177 -75 75 -53 53 vstem
            return
          </CharString>
          <CharString index="79">
            -156 50 849 50 hstem
            return
          </CharString>
          <CharString index="80" raw="1">
            f70a8a0a 0b  
          </CharString>
          <CharString index="81">
            599 -21 callsubr
            hstem
            return
          </CharString>
          <CharString index="82">
            0 50 555 50 return
          </CharString>
          <CharString index="83">
            -10 52 433 -20 return
          </CharString>
          <CharString index="84">
            -265 rlineto
            -114 -14 -10 -56 122 hhcurveto
            19 59 12 0 hvcurveto
            return
          </CharString>
          <CharString index="85">
            rmoveto
            -50 hlineto
            -30 -217 rlineto
            50 hlineto
            return
          </CharString>
          <CharString index="86">
            -21 139 -20 return
          </CharString>
          <CharString index="87">
            rlineto
            265 hlineto
            return
          </CharString>
          <CharString index="88">
            -224 -37 hvcurveto
            -252 -39 63 return
          </CharString>
          <CharString index="89">
            213 33 hvcurveto
            190 33 63 return
          </CharString>
          <CharString index="90">
            -20 33 42 53 32 44 return
          </CharString>
          <CharString index="91">
            0 50 375 50 return
          </CharString>
          <CharString index="92">
            -9 48 616 -20 return
          </CharString>
          <CharString index="93">
            hlineto
            8 48 rlineto
            return
          </CharString>
          <CharString index="94">
            51 573 51 return
          </CharString>
          <CharString index="95">
            rlineto
            52 hlineto
            return
          </CharString>
          <CharString index="96">
            475 rmoveto
            return
          </CharString>
          <CharString index="97">
            rmoveto
            -8 -50 rlineto
            hintmask 11110010
            369 -61 callsubr
            return
          </CharString>
          <CharString index="98">
            -5 -21 -26 -5 -19 hhcurveto
            -75 14 4 callsubr
            return
          </CharString>
          <CharString index="99">
            rmoveto
            -41 11 -111 -201 61 -17 rlineto
            endchar
          </CharString>
          <CharString index="100">
            69 hlineto
            13 81 rlineto
            -69 hlineto
            return
          </CharString>
          <CharString index="101">
            rlineto
            -187 hlineto
            -7 -48 rlineto
            return
          </CharString>
          <CharString index="102">
            rlineto
            58 hlineto
            return
          </CharString>
          <CharString index="103">
            0 43 172 42 141 43 172 42 return
          </CharString>
          <CharString index="104">
            hlineto
            -96 -604 rlineto
            55 hlineto
            96 604 rlineto
            return
          </CharString>
          <CharString index="105">
            -10 -13 callsubr
            return
          </CharString>
          <CharString index="106" raw="1">
            760a120b   
          </CharString>
          <CharString index="107">
            rmoveto
            -7 -44 rlineto
            426 hlineto
            7 44 rlineto
            return
          </CharString>
          <CharString index="108">
            rmoveto
            -7 -44 rlineto
            349 hlineto
            7 44 rlineto
            return
          </CharString>
          <CharString index="109">
            -41 callsubr
            -109 -665 -12 callsubr
            return
          </CharString>
          <CharString index="110">
            rmoveto
            -8 -44 rlineto
            450 hlineto
            8 44 rlineto
            return
          </CharString>
          <CharString index="111">
            27 93 11 hvcurveto
            return
          </CharString>
          <CharString index="112">
            655 rlineto
            return
          </CharString>
          <CharString index="113">
            665 rmoveto
            return
          </CharString>
          <CharString index="114">
            rlineto
            36 39 33 26 28 hhcurveto
            -1 return
          </CharString>
          <CharString index="115">
            rmoveto
            87 hlineto
            13 102 rlineto
            -87 hlineto
            return
          </CharString>
          <CharString index="116">
            52 hstem
            59 64 255 64 vstem
            return
          </CharString>
          <CharString index="117">
            201 -61 17 rlineto
            return
          </CharString>
          <CharString index="118">
            14 callsubr
            hstemhm
            return
          </CharString>
          <CharString index="119">
            21 -21 475 -20 return
          </CharString>
          <CharString index="120">
            21 -21 429 52 return
          </CharString>
          <CharString index="121">
            -21 162 -20 return
          </CharString>
          <CharString index="122">
            48 6 47 return
          </CharString>
        <CharString name=".notdef">
          endchar
        </CharString>
        <CharString name=".notdef.001">
          -71 -21 83 51 572 51 60 -20 hstem
          89 61 215 60 vstem
          425 212 rmoveto
          90 -50 33 -106 29 vhcurveto
          -84 23 -35 30 58 vvcurveto
          92 66 47 93 51 69 -17 -13 33 vhcurveto
          22 50 rlineto
          15 -40 -67 16 -61 hhcurveto
          -125 -102 -67 -133 -82 47 -44 106 -26 hvcurveto
          91 -23 32 -29 -59 vvcurveto
          -104 -72 -56 -101 -50 -65 17 11 -38 vhcurveto
          -21 -50 rlineto
          -14 48 60 -15 60 hhcurveto
          132 107 80 141 hvcurveto
          -72 513 rmoveto
          -53 hlineto
          -66 -385 rlineto
          53 hlineto
          -18 hmoveto
          -53 hlineto
          -74 -432 rlineto
          53 hlineto
          endchar
        </CharString>
        <CharString name=".null">
          -562 endchar
        </CharString>
        <CharString name="A">
          -53 callsubr
          endchar
        </CharString>
        <CharString name="AE">
          -42 callsubr
          hstem
          451 hmoveto
          9 48 rlineto
          -177 hlineto
          45 261 rlineto
          147 hlineto
          9 48 rlineto
          -147 hlineto
          44 250 rlineto
          174 -14 callsubr
          -302 hlineto
          -295 -655 -5 callsubr
          69 151 rlineto
          148 hlineto
          -27 -151 rlineto
          -98 201 rmoveto
          179 407 rlineto
          31 hlineto
          -76 -407 rlineto
          endchar
        </CharString>
        <CharString name="Aacute">
          -60 callsubr
          -134 646 -71 callsubr
        </CharString>
        <CharString name="Acircumflex">
          -42 callsubr
          632 -21 162 -20 -89 callsubr
          -187 611 -95 callsubr
        </CharString>
        <CharString name="Adieresis">
          -53 callsubr
          -155 666 -107 callsubr
        </CharString>
        <CharString name="Agrave">
          -60 callsubr
          -95 741 -70 callsubr
        </CharString>
        <CharString name="Aring">
          -42 callsubr
          562 38 114 39 hstemhm
          140 42 124 43 -94 callsubr
          hintmask 00111100
          84 672 -69 callsubr
        </CharString>
        <CharString name="Atilde">
          -42 callsubr
          630 15 callsubr
          -89 callsubr
          99 718 -98 callsubr
        </CharString>
        <CharString name="B">
          0 50 260 49 247 49 hstem
          68 55 269 57 -40 58 vstem
          32 hmoveto
          158 hlineto
          147 103 38 149 13 hvcurveto
          7 82 -34 48 -78 19 78 24 35 48 12 77 rrcurveto
          128 21 -75 42 -149 hhcurveto
          -131 hlineto
          128 -50 rmoveto
          105 62 -24 -96 -15 hvcurveto
          -83 -13 -61 -43 -89 hhcurveto
          -114 hlineto
          41 246 rlineto
          -48 -295 rmoveto
          114 hlineto
          88 76 -26 -97 -15 hvcurveto
          -109 -17 -73 -28 -109 hhcurveto
          -107 hlineto
          endchar
        </CharString>
        <CharString name="C">
          -9 52 570 52 hstem
          55 59 270 55 vstem
          -66 callsubr
          endchar
        </CharString>
        <CharString name="CR">
          -10 51 442 53 hstem
          53 57 280 58 vstem
          295 536 rmoveto
          -165 -77 -177 -170 -119 46 -80 109 167 73 155 178 118 -45 95 -108 hvcurveto
          -79 -495 rmoveto
          -77 -29 69 85 122 51 166 125 77 27 -80 -86 -120 -42 -156 -132 hvcurveto
          endchar
        </CharString>
        <CharString name="CR.001">
          0 52 475 -20 hstem
          414 hmoveto
          8 52 rlineto
          -145 hlineto
          75 475 rlineto
          -53 hlineto
          -194 -65 15 -54 163 55 -65 -411 rlineto
          -145 hlineto
          -8 -52 rlineto
          endchar
        </CharString>
        <CharString name="CR.002">
          0 52 434 52 hstem
          397 58 vstem
          292 486 rmoveto
          68 37 -41 -56 -59 -32 -33 -54 -49 hvcurveto
          -19 -17 -23 -21 -208 -166 -7 -44 rcurveline
          374 hlineto
          8 52 rlineto
          -288 hlineto
          200 161 rlineto
          92 78 15 55 54 vvcurveto
          85 -54 53 -101 -83 -84 -57 0 vhcurveto
          21 -43 rlineto
          0 69 48 69 vhcurveto
          endchar
        </CharString>
        <CharString name="CR.003">
          -141 52 576 52 hstemhm
          396 60 -33 58 hintmask 11100000
          165 182 rmoveto
          0 81 12 30 80 40 -38 -75 -108 -76 -62 -97 -52 -69 20 19 -46 vhcurveto
          -26 -51 rlineto
          -20 51 75 -20 59 hhcurveto
          147 94 82 146 72 -34 54 -65 14 hvcurveto
          2 vlineto
          hintmask 11010000
          88 41 36 48 90 vvcurveto
          91 -64 40 -93 -49 -86 -25 -24 -52 vhcurveto
          11 -47 rlineto
          22 54 65 22 43 hhcurveto
          63 50 -26 -66 -86 -62 -53 -122 -18 hvcurveto
          -74 -11 rlineto
          endchar
        </CharString>
        <CharString name="CR.004">
          -86 -21 167 52 415 -20 hstem
          466 112 rmoveto
          -90 hlineto
          65 415 rlineto
          -59 hlineto
          -338 -420 -7 -47 rlineto
          276 hlineto
          -27 -167 rlineto
          55 hlineto
          27 167 rlineto
          90 hlineto
          -343 52 rmoveto
          256 317 -50 -317 rlineto
          endchar
        </CharString>
        <CharString name="CR.005">
          -141 52 307 52 200 57 hstem
          383 59 vstem
          196 -141 rmoveto
          156 90 101 150 99 -56 61 -106 -42 -49 -18 -25 -39 hvcurveto
          45 243 rlineto
          285 hlineto
          9 57 rlineto
          -341 hlineto
          -66 -356 41 -11 rlineto
          29 39 51 29 53 hhcurveto
          77 40 -45 -72 -110 -65 -80 -115 -52 -61 21 20 -42 hvcurveto
          -27 -51 rlineto
          -21 48 73 -21 54 hhcurveto
          endchar
        </CharString>
        <CharString name="CR.006">
          -10 52 322 52 308 -20 hstem
          47 59 292 58 vstem
          217 -10 rmoveto
          150 89 120 146 103 -59 57 -112 -59 -49 -33 -31 -36 hvcurveto
          45 108 72 125 194 90 -14 49 rcurveline
          -304 -138 -87 -206 -204 vvcurveto
          -114 62 -72 108 vhcurveto
          60 374 rmoveto
          80 41 -40 -76 -109 -61 -97 -111 -80 -40 51 86 114 84 71 87 hvcurveto
          endchar
        </CharString>
        <CharString name="CR.007">
          -87 -21 578 57 hstem
          379 470 rmoveto
          -268 -578 rlineto
          64 hlineto
          264 579 8 56 rlineto
          -356 hlineto
          -9 -57 rlineto
          endchar
        </CharString>
        <CharString name="CR.008">
          -10 52 289 50 236 52 hstemhm
          21 59 15 56 242 58 -30 30 -30 57 hintmask 11111100
          313 669 rmoveto
          -140 -78 -85 -109 -52 23 -40 49 -27 hvcurveto
          -79 -28 -67 -76 -97 vvcurveto
          -93 65 -72 119 148 98 100 119 69 -34 57 -58 23 vhcurveto
          hintmask 11111001
          88 35 31 58 75 vvcurveto
          84 -54 59 -111 vhcurveto
          -233 -506 rmoveto
          89 76 79 103 vhcurveto
          hintmask 11111100
          86 48 -57 -71 -89 -76 -72 -103 -85 -49 53 68 hvcurveto
          71 317 rmoveto
          79 46 58 108 vhcurveto
          hintmask 11111010
          81 35 -38 -58 -79 -43 -61 -111 -83 -33 43 56 hvcurveto
          endchar
        </CharString>
        <CharString name="CR.009">
          -177 -21 298 52 330 54 hstem
          81 58 289 58 vstem
          306 536 rmoveto
          -142 -83 -116 -143 -112 62 -65 118 59 51 32 31 34 hvcurveto
          -39 -108 -68 -113 -190 -91 17 -49 rcurveline
          272 127 89 191 222 vvcurveto
          122 -66 72 -114 vhcurveto
          -40 -384 rmoveto
          -84 -43 47 83 109 56 91 106 84 43 -57 -95 -105 -78 -73 -84 hvcurveto
          endchar
        </CharString>
        <CharString name="CR.010">
          endchar
        </CharString>
        <CharString name="Ccedilla">
          -101 44 48 52 570 52 hstemhm
          55 59 112 51 107 55 hintmask 01110100
          -66 callsubr
          hintmask 00000000
          -99 -151 -56 callsubr
        </CharString>
        <CharString name="D">
          -25 callsubr
          hstem
          60 55 284 59 vstem
          16 hmoveto
          132 hlineto
          180 99 63 264 38 hvcurveto
          227 33 -42 101 -201 hhcurveto
          -131 hlineto
          125 -50 rmoveto
          151 41 -66 -212 -32 hvcurveto
          -226 -38 -70 -51 -145 hhcurveto
          -80 hlineto
          91 555 rlineto
          0 43 0 39 vhcurveto
          endchar
        </CharString>
        <CharString name="E">
          -55 callsubr
          endchar
        </CharString>
        <CharString name="Eacute">
          -64 callsubr
          177 847 -71 callsubr
        </CharString>
        <CharString name="Ecircumflex">
          -44 callsubr
          178 -21 162 -79 callsubr
          124 812 -95 callsubr
        </CharString>
        <CharString name="Edieresis">
          -55 callsubr
          146 867 -107 callsubr
        </CharString>
        <CharString name="Egrave">
          -64 callsubr
          211 942 -70 callsubr
        </CharString>
        <CharString name="Euro">
          -9 52 120 44 124 44 216 9 callsubr
          13 285 1 callsubr
          -330 119 1 callsubr
          20 -335 rmoveto
          -13 -42 -78 -14 -44 hhcurveto
          -103 -46 68 -18 callsubr
          79 110 hhcurveto
          33 85 -14 -11 26 hvcurveto
          23 51 rlineto
          17 -44 -70 9 -46 hhcurveto
          -152 -82 -97 -19 callsubr
          -81 140 hhcurveto
          48 85 13 15 45 hvcurveto
          endchar
        </CharString>
        <CharString name="F">
          21 -21 269 50 286 50 hstem
          86 55 vstem
          95 hmoveto
          44 269 rlineto
          232 -61 callsubr
          -232 hlineto
          47 286 rlineto
          271 -61 callsubr
          -323 hlineto
          -107 -39 callsubr
          endchar
        </CharString>
        <CharString name="G">
          -9 52 223 49 298 52 hstem
          38 59 292 55 vstem
          282 266 rmoveto
          114 hlineto
          -33 -200 -38 -12 -49 -10 -40 -1 rlinecurve
          -119 -3 -44 78 38 217 rrcurveto
          189 33 59 89 128 hhcurveto
          51 61 -17 -14 39 hvcurveto
          22 51 rlineto
          18 -47 -65 14 -53 hhcurveto
          -167 -84 -107 -223 -36 hvcurveto
          -253 -40 62 -91 150 hhcurveto
          51 77 17 19 56 hvcurveto
          47 289 rlineto
          -164 hlineto
          endchar
        </CharString>
        <CharString name="H">
          21 -21 300 51 304 -20 hstem
          55 55 281 55 vstem
          330 hmoveto
          52 hlineto
          107 655 -41 callsubr
          -50 -305 rlineto
          -265 hlineto
          50 305 -41 callsubr
          -107 -655 -12 callsubr
          49 300 -20 callsubr
          endchar
        </CharString>
        <CharString name="I">
          -49 callsubr
          endchar
        </CharString>
        <CharString name="Iacute">
          -59 callsubr
          -6 797 -71 callsubr
        </CharString>
        <CharString name="Icircumflex">
          -25 callsubr
          178 -21 162 -75 callsubr
          -59 762 -95 callsubr
        </CharString>
        <CharString name="Idieresis">
          -49 callsubr
          -37 817 -107 callsubr
        </CharString>
        <CharString name="Igrave">
          -59 callsubr
          18 892 -70 callsubr
        </CharString>
        <CharString name="J">
          -11 52 564 50 hstem
          257 55 vstem
          359 605 rmoveto
          46 -61 callsubr
          -253 -47 callsubr
          155 hlineto
          -63 -387 rlineto
          -155 -25 -13 -22 -65 hhcurveto
          -25 -53 11 6 -22 hvcurveto
          -16 -52 rlineto
          -7 22 68 -10 22 hhcurveto
          114 1 17 53 28 172 rrcurveto
          endchar
        </CharString>
        <CharString name="K">
          -35 callsubr
          71 55 vstem
          412 655 rmoveto
          0 -111 -189 -83 -110 vhcurveto
          -81 -10 51 309 rlineto
          -53 hlineto
          -107 -39 callsubr
          53 hlineto
          48 297 87 10 rlineto
          41 -86 81 -221 0 vvcurveto
          63 hlineto
          0 -88 235 -49 102 vhcurveto
          88 118 120 200 0 vvcurveto
          endchar
        </CharString>
        <CharString name="L">
          0 51 604 -20 hstem
          91 55 vstem
          377 50 rmoveto
          -260 hlineto
          99 605 rlineto
          -53 hlineto
          -106 -39 callsubr
          313 hlineto
          endchar
        </CharString>
        <CharString name="M">
          -35 callsubr
          41 55 293 55 vstem
          389 hmoveto
          108 5 callsubr
          -67 hlineto
          -178 -366 rlineto
          0 -5 0 -1 vhcurveto
          -79 366 rlineto
          -55 hlineto
          -109 -39 callsubr
          53 hlineto
          88 533 65 -294 rlineto
          67 hlineto
          148 294 -87 -533 rlineto
          endchar
        </CharString>
        <CharString name="N">
          -35 callsubr
          43 55 299 55 vstem
          -46 callsubr
          endchar
        </CharString>
        <CharString name="Ntilde">
          21 -21 655 -20 196 15 callsubr
          hstemhm
          43 55 299 55 hintmask 11001100
          -46 callsubr
          hintmask 00110000
          90 816 -98 callsubr
        </CharString>
        <CharString name="O">
          -80 callsubr
          endchar
        </CharString>
        <CharString name="OE">
          -42 callsubr
          hstem
          302 655 rmoveto
          -153 2 -101 -101 -37 -224 rrcurveto
          -252 -39 106 -80 120 hhcurveto
          223 -14 callsubr
          -157 hlineto
          41 261 rlineto
          127 -14 callsubr
          -127 hlineto
          39 250 rlineto
          154 -14 callsubr
          -217 -50 rmoveto
          -88 -556 rlineto
          -11 hlineto
          -95 -2 -75 72 33 213 35 196 83 81 118 -4 rrcurveto
          endchar
        </CharString>
        <CharString name="Oacute">
          -83 callsubr
          128 511 -71 callsubr
        </CharString>
        <CharString name="Ocircumflex">
          -2 callsubr
          168 -21 162 -20 -102 callsubr
          70 476 -95 callsubr
        </CharString>
        <CharString name="Odieresis">
          -80 callsubr
          91 531 -107 callsubr
        </CharString>
        <CharString name="Ograve">
          -83 callsubr
          152 606 -70 callsubr
        </CharString>
        <CharString name="Otilde">
          -2 callsubr
          166 15 callsubr
          -102 callsubr
          351 583 -98 callsubr
        </CharString>
        <CharString name="P">
          21 -21 242 50 313 50 hstem
          69 55 269 58 vstem
          198 242 rmoveto
          146 86 57 154 25 hvcurveto
          154 25 -69 48 -146 hhcurveto
          -139 hlineto
          -107 -39 callsubr
          51 hlineto
          41 242 rlineto
          146 363 rmoveto
          113 50 -33 -119 -20 hvcurveto
          -120 -20 -60 -41 -114 hhcurveto
          -87 hlineto
          51 313 rlineto
          endchar
        </CharString>
        <CharString name="Q">
          -52 -21 63 -33 callsubr
          347 -73 rmoveto
          38 43 -40 88 55 61 32 98 20 119 rlinecurve
          192 33 -16 137 -160 hhcurveto
          -161 -62 -137 -192 -32 hvcurveto
          -202 -35 19 -144 153 hhcurveto
          43 37 11 20 31 hvcurveto
          -192 315 -84 callsubr
          -16 -88 -22 -89 -42 -56 -52 67 rcurveline
          -33 -52 44 -55 rlineto
          -14 -21 -24 -8 -29 hhcurveto
          -125 7 148 147 27 hvcurveto
          endchar
        </CharString>
        <CharString name="R">
          21 -21 268 50 287 50 hstem
          61 55 270 58 vstem
          265 271 rmoveto
          21 -66 31 -117 18 -88 rrcurveto
          57 hlineto
          -19 98 -30 113 -23 72 84 35 44 52 17 96 rrcurveto
          147 23 -70 42 -148 hhcurveto
          -140 hlineto
          -106 -39 callsubr
          51 hlineto
          45 268 rlineto
          78 hlineto
          19 30 2 1 18 hvcurveto
          -4 334 rmoveto
          109 58 -24 -115 -18 hvcurveto
          -115 -21 -78 -33 -108 hhcurveto
          -75 hlineto
          47 287 rlineto
          endchar
        </CharString>
        <CharString name="S">
          -9 51 572 51 hstem
          54 60 260 59 vstem
          415 174 rmoveto
          14 120 -46 36 -119 34 -93 27 -30 33 8 73 rrcurveto
          78 10 57 39 79 hhcurveto
          48 66 -17 -13 32 hvcurveto
          19 50 rlineto
          15 -39 -64 16 -58 hhcurveto
          -107 -86 -57 -112 -14 hvcurveto
          -12 -103 44 -50 116 -30 103 -27 25 -32 -9 -80 rrcurveto
          -85 -10 -62 -47 -86 hhcurveto
          -47 -62 17 11 -36 hvcurveto
          -18 -50 rlineto
          -14 46 57 -15 57 hhcurveto
          113 90 68 115 14 hvcurveto
          endchar
        </CharString>
        <CharString name="T">
          21 -21 605 50 hstem
          221 55 vstem
          307 605 rmoveto
          166 hlineto
          7 50 rlineto
          -380 -47 callsubr
          163 hlineto
          -99 -605 -12 callsubr
          endchar
        </CharString>
        <CharString name="U">
          -63 callsubr
          endchar
        </CharString>
        <CharString name="Uacute">
          -68 callsubr
          -177 657 -71 callsubr
        </CharString>
        <CharString name="Ucircumflex">
          -15 callsubr
          198 -21 162 -85 callsubr
          -248 622 -95 callsubr
        </CharString>
        <CharString name="Udieresis">
          -63 callsubr
          -228 677 -107 callsubr
        </CharString>
        <CharString name="Ugrave">
          -68 callsubr
          -163 752 -70 callsubr
        </CharString>
        <CharString name="V">
          0 49 606 -20 hstem
          79 655 rmoveto
          70 -39 callsubr
          95 hlineto
          289 5 callsubr
          -58 hlineto
          -265 -606 rlineto
          -8 hlineto
          -69 606 rlineto
          endchar
        </CharString>
        <CharString name="W">
          -266 -21 656 -20 hstem
          490 655 rmoveto
          -160 -605 rlineto
          -6 hlineto
          -33 320 rlineto
          -71 hlineto
          -131 -320 rlineto
          -6 hlineto
          27 605 rlineto
          -54 hlineto
          -28 -39 callsubr
          91 hlineto
          129 316 30 -316 rlineto
          96 hlineto
          174 5 callsubr
          endchar
        </CharString>
        <CharString name="X">
          -35 callsubr
          244 288 rmoveto
          1 3 0 1 hhcurveto
          93 -288 rlineto
          67 hlineto
          -114 328 195 327 rlineto
          -67 hlineto
          -153 -275 rlineto
          -1 -3 0 -1 hhcurveto
          -80 275 rlineto
          -65 hlineto
          100 -314 -215 -341 rlineto
          67 hlineto
          endchar
        </CharString>
        <CharString name="Y">
          -48 callsubr
          endchar
        </CharString>
        <CharString name="Ydieresis">
          -48 callsubr
          -45 867 -107 callsubr
        </CharString>
        <CharString name="Z">
          0 47 560 48 hstem
          466 655 rmoveto
          -343 hlineto
          -7 -48 rlineto
          284 hlineto
          -367 -567 rlineto
          -40 360 vlineto
          6 47 rlineto
          -302 hlineto
          369 568 rlineto
          endchar
        </CharString>
        <CharString name="_31">
          -10 52 389 48 12 -20 hstemhm
          74 210 52 81 hintmask 11011000
          213 431 rmoveto
          57 14 -28 -38 -58 -21 -42 -82 -13 hvcurveto
          -104 -17 rlineto
          102 8 30 94 98 hhcurveto
          -32 -441 rmoveto
          45 68 15 16 42 hvcurveto
          -15 50 rlineto
          -14 -40 -59 -15 -38 hhcurveto
          -93 -22 51 92 5 hvcurveto
          114 20 rlineto
          hintmask 10111000
          190 33 106 107 -16 146 rrcurveto
          hintmask 11011000
          -51 -12 5 -75 -33 -61 -62 -39 rlinecurve
          5 16 4 22 18 vvcurveto
          64 -27 55 -90 -122 -54 -89 -157 -18 vhcurveto
          -151 -18 47 -92 127 hhcurveto
          endchar
        </CharString>
        <CharString name="a">
          -73 callsubr
          endchar
        </CharString>
        <CharString name="a.001">
          -38 callsubr
          hstem
          52 56 229 53 vstem
          -78 callsubr
          33 35 -5 -10 28 hvcurveto
          -39 -233 -90 callsubr
          57 344 rlineto
          15 -45 -72 12 -39 -74 callsubr
          endchar
        </CharString>
        <CharString name="aacute">
          -81 callsubr
          7 631 -71 callsubr
        </CharString>
        <CharString name="acircumflex">
          -38 callsubr
          127 -21 162 -20 -100 callsubr
          -51 596 -95 callsubr
        </CharString>
        <CharString name="acute">
          -26 callsubr
          152 622 -71 callsubr
        </CharString>
        <CharString name="adieresis">
          -73 callsubr
          -19 651 -107 callsubr
        </CharString>
        <CharString name="ae">
          -10 51 176 52 159 52 -5 -20 hstemhm
          19 56 146 53 154 57 hintmask 00000000
          hintmask 11011110
          133 -10 rmoveto
          63 43 23 37 26 hvcurveto
          -49 18 29 -11 57 hhcurveto
          45 69 25 0 hvcurveto
          -7 48 rlineto
          0 -71 -22 -28 -87 16 83 93 7 vhcurveto
          203 hlineto
          12 52 rlineto
          hintmask 11101110
          144 22 -24 67 -95 hhcurveto
          -48 -40 -28 -36 -20 hvcurveto
          45 -8 -24 14 -54 hhcurveto
          -37 -54 -16 -19 -42 hvcurveto
          10 -48 rlineto
          16 36 42 15 37 hhcurveto
          59 -7 -42 -112 -17 hvcurveto
          -65 hlineto
          -97 -65 -64 -101 -71 36 -43 60 hvcurveto
          109 102 rmoveto
          0 -39 -51 -57 -33 -19 24 45 70 37 38 60 vhcurveto
          63 hlineto
          169 210 rmoveto
          59 4 -59 -102 -16 hvcurveto
          -146 hlineto
          110 20 19 51 60 hhcurveto
          endchar
        </CharString>
        <CharString name="agrave">
          -81 callsubr
          36 726 -70 callsubr
        </CharString>
        <CharString name="ampersand">
          -10 48 -42 -21 643 48 hstemhm
          5 57 50 56 167 56 hintmask 01111100
          388 117 rmoveto
          43 71 36 91 21 78 -45 8 rcurveline
          -20 -66 -30 -82 -33 -58 -104 207 rcurveline
          111 47 38 40 7 79 rrcurveto
          77 8 -55 57 -73 hhcurveto
          -71 -67 -59 -72 -6 hvcurveto
          -6 -48 14 -36 24 -50 -85 -34 -72 -63 -9 -107 rrcurveto
          hintmask 10111100
          -134 -14 70 -73 110 hhcurveto
          64 57 32 54 51 hvcurveto
          21 -41 40 -56 0 vvcurveto
          40 32 rlineto
          0 -40 61 -25 45 vhcurveto
          -29 415 rmoveto
          -6 -56 -33 -37 -83 -33 -29 50 -12 32 5 47 rrcurveto
          45 4 40 38 43 hhcurveto
          46 30 -37 -49 -5 hvcurveto
          -31 -417 rmoveto
          -45 -38 -56 -32 -48 hhcurveto
          -85 -45 60 99 11 hvcurveto
          7 84 55 52 70 29 rrcurveto
          endchar
        </CharString>
        <CharString name="approxequal">
          92 49 29 49 67 47 31 47 hstem
          431 202 rmoveto
          -28 -31 -39 -33 -25 -65 -46 78 -78 hhcurveto
          -42 -42 -28 -50 -55 hvcurveto
          31 -33 7 callsubr
          57 52 -77 81 hhcurveto
          39 40 29 49 53 hvcurveto
          224 vmoveto
          -28 -31 -38 -33 -25 -65 -47 78 -78 hhcurveto
          -42 -41 -28 -50 -55 hvcurveto
          31 -31 7 callsubr
          56 52 -77 81 hhcurveto
          39 41 29 49 53 hvcurveto
          endchar
        </CharString>
        <CharString name="aring">
          -38 callsubr
          72 38 114 39 hstemhm
          135 42 124 43 -7 53 hintmask 00110010
          -106 callsubr
          hintmask 11001100
          225 672 -69 callsubr
        </CharString>
        <CharString name="asciitilde">
          208 47 31 47 hstem
          444 316 rmoveto
          -28 -32 -46 -33 -24 -62 -33 77 -74 hhcurveto
          -40 -39 -27 -50 -59 hvcurveto
          26 -31 rlineto
          36 41 39 26 27 hhcurveto
          -1 54 39 -76 77 hhcurveto
          37 38 28 49 56 hvcurveto
          endchar
        </CharString>
        <CharString name="asterisk">
          505 45 hstem
          76 505 rmoveto
          139 hlineto
          -60 -139 40 -16 60 140 103 -88 31 39 -104 85 124 88 -21 36 -123 -87 -26 142 -44 -15 26 -140 rlineto
          -140 hlineto
          endchar
        </CharString>
        <CharString name="at">
          -109 52 84 51 260 51 84 52 hstem
          55 59 67 56 160 55 vstem
          360 87 rmoveto
          0 -42 -9 -36 -68 0 61 77 13 vhcurveto
          64 8 20 58 62 hhcurveto
          59 23 -14 0 hvcurveto
          12 50 rlineto
          0 -35 15 -53 -103 -33 -99 -74 -14 vhcurveto
          -101 -16 10 -88 100 hhcurveto
          79 60 27 0 hvcurveto
          66 433 rlineto
          0 -40 38 -106 -147 -96 -116 -195 -29 vhcurveto
          -226 -35 79 -97 121 hhcurveto
          48 67 13 15 45 hvcurveto
          -5 51 rlineto
          -13 -41 -59 -14 -45 hhcurveto
          -73 -77 71 200 31 hvcurveto
          161 24 77 98 106 hhcurveto
          79 19 -20 0 hvcurveto
          endchar
        </CharString>
        <CharString name="atilde">
          -38 callsubr
          125 15 callsubr
          -100 callsubr
          245 703 -98 callsubr
        </CharString>
        <CharString name="b">
          -37 callsubr
          183 -20 hstem
          77 53 267 57 vstem
          24 hmoveto
          53 hlineto
          6 20 rlineto
          -13 24 62 -16 36 hhcurveto
          122 85 103 150 17 hvcurveto
          152 18 -55 85 -114 hhcurveto
          -49 -49 -29 -23 -34 hvcurveto
          39 236 -41 callsubr
          135 -236 rmoveto
          86 34 -71 -114 -13 hvcurveto
          -116 -14 -60 -85 -92 hhcurveto
          -31 -67 17 12 -23 hvcurveto
          49 300 rlineto
          30 38 51 27 42 hhcurveto
          endchar
        </CharString>
        <CharString name="backslash">
          -20 -21 751 -20 hstem
          362 -41 rmoveto
          49 22 -291 729 -50 -22 rlineto
          endchar
        </CharString>
        <CharString name="bar">
          -223 -21 566 34 387 -20 hstem
          223 53 354 36 vstem
          358 743 rmoveto
          -51 hlineto
          -150 -987 rlineto
          51 hlineto
          endchar
        </CharString>
        <CharString name="braceleft">
          -28 callsubr
          184 103 vstem
          178 323 rmoveto
          1 5 91 38 23 150 4 89 12 83 rlinecurve
          39 6 17 16 30 hhcurveto
          98 hlineto
          7 50 rlineto
          -102 hlineto
          -49 -48 -21 -78 -12 hvcurveto
          -11 -78 -1 -68 -23 -150 -94 -50 rcurveline
          -5 -45 76 -50 -20 -137 -22 -82 -14 -91 rlinecurve
          -78 -12 42 -21 49 hhcurveto
          102 hlineto
          7 50 rlineto
          -98 hlineto
          -29 -12 16 39 6 hvcurveto
          15 96 25 103 20 137 rrcurveto
          endchar
        </CharString>
        <CharString name="braceright">
          -28 callsubr
          197 103 vstem
          308 398 rmoveto
          24 150 20 68 11 78 rrcurveto
          78 12 -41 21 -49 hhcurveto
          -102 -47 callsubr
          98 hlineto
          29 12 -16 -39 -6 hvcurveto
          -12 -83 -23 -89 -23 -150 79 -38 rcurveline
          -1 -5 -91 -38 -20 -137 -6 -103 -15 -96 rlinecurve
          -39 -6 -17 -16 -30 hhcurveto
          -98 hlineto
          -6 -50 rlineto
          102 hlineto
          49 47 21 78 12 hvcurveto
          14 91 3 82 20 137 95 50 rcurveline
          5 45 rlineto
          endchar
        </CharString>
        <CharString name="bracketleft">
          -28 callsubr
          164 57 vstem
          271 743 rmoveto
          141 -61 callsubr
          -193 hlineto
          -155 -949 rlineto
          194 hlineto
          12 50 rlineto
          -146 hlineto
          endchar
        </CharString>
        <CharString name="bracketright">
          -28 callsubr
          130 206 -57 57 vstem
          221 -106 rmoveto
          -143 -47 callsubr
          195 hlineto
          155 949 rlineto
          -196 hlineto
          -11 -50 rlineto
          147 hlineto
          endchar
        </CharString>
        <CharString name="c">
          -9 52 387 51 hstem
          81 57 221 54 vstem
          -65 callsubr
          endchar
        </CharString>
        <CharString name="caron">
          271 endchar
        </CharString>
        <CharString name="ccedilla">
          -101 44 48 52 387 51 hstemhm
          81 57 118 51 52 54 hintmask 01110100
          -65 callsubr
          hintmask 00000000
          -70 -551 -56 callsubr
        </CharString>
        <CharString name="cedilla">
          -242 45 96 44 hstemhm
          284 51 hintmask 00000000
          hintmask 01100000
          333 -132 -50 callsubr
          hintmask 10100000
          -52 callsubr
        </CharString>
        <CharString name="circumflex">
          608 14 callsubr
          hstem
          101 587 -95 callsubr
        </CharString>
        <CharString name="colon">
          -6 80 hstem
          85 64 vstem
          200 303 8 callsubr
          -53 -405 8 callsubr
          endchar
        </CharString>
        <CharString name="comma">
          -122 -21 hstem
          177 hmoveto
          38 hlineto
          -8 -42 -19 -33 -35 -44 23 -24 rcurveline
          57 57 32 59 7 57 11 82 rcurveline
          -91 hlineto
          endchar
        </CharString>
        <CharString name="d">
          -37 callsubr
          183 -20 hstem
          51 57 267 53 vstem
          472 6 callsubr
          -52 hlineto
          -35 -211 rlineto
          12 -25 -58 15 -36 hhcurveto
          -121 -84 -94 -149 -17 hvcurveto
          -152 -18 53 -95 114 hhcurveto
          48 47 29 23 35 hvcurveto
          2 -53 50 6 2 87 rlineto
          -174 -40 rmoveto
          -85 -34 81 114 14 hvcurveto
          116 13 60 75 91 hhcurveto
          31 62 -17 -12 21 hvcurveto
          -49 -300 rlineto
          -30 -38 -43 -27 -43 hhcurveto
          endchar
        </CharString>
        <CharString name="dagger">
          -7 32 475 48 210 -20 hstem
          224 53 vstem
          116 -118 rmoveto
          50 hlineto
          103 618 rlineto
          186 -14 callsubr
          -186 hlineto
          35 210 rlineto
          -51 hlineto
          -37 -210 -6 callsubr
          186 hlineto
          endchar
        </CharString>
        <CharString name="daggerdbl">
          -7 32 475 -20 68 0 hstem
          277 0 vstem
          222 500 rmoveto
          -55 -339 -6 callsubr
          186 hlineto
          -32 -197 rlineto
          50 hlineto
          33 197 rlineto
          188 -14 callsubr
          -188 hlineto
          56 339 rlineto
          187 -14 callsubr
          -188 hlineto
          33 198 rlineto
          -51 hlineto
          -33 -198 -6 callsubr
          endchar
        </CharString>
        <CharString name="degree">
          426 45 178 44 hstemhm
          111 53 171 53 hintmask 00000000
          hintmask 01010000
          388 577 rmoveto
          66 -49 50 -69 vhcurveto
          hintmask 10100000
          -86 -76 -67 -84 -66 49 -50 70 hvcurveto
          hintmask 01010000
          85 76 67 84 hvcurveto
          -128 72 rmoveto
          51 -1 29 -40 -7 -50 rrcurveto
          hintmask 10100000
          -7 -51 -40 -38 -49 2 -51 1 -30 39 7 50 rrcurveto
          hintmask 01100000
          7 51 40 38 50 -1 rrcurveto
          endchar
        </CharString>
        <CharString name="dieresis">
          610 74 hstem
          131 73 120 74 vstem
          131 642 -107 callsubr
        </CharString>
        <CharString name="divide">
          92 90 hstem
          206 82 vstem
          181 124 rmoveto
          -23 12 -9 24 35 13 17 37 23 -11 13 -23 -34 -16 -23 -35 vhcurveto
          45 284 rmoveto
          -23 12 -10 23 35 14 18 36 23 -11 13 -23 -35 -15 -23 -34 vhcurveto
          -187 -101 rmoveto
          430 hlineto
          -8 -46 rlineto
          -430 hlineto
          endchar
        </CharString>
        <CharString name="dollar">
          -71 -21 84 50 280 34 236 50 83 -20 hstem
          55 60 93 50 116 59 197 36 vstem
          406 175 rmoveto
          13 105 -41 44 -124 32 -93 24 -29 30 8 72 rrcurveto
          74 9 52 36 82 hhcurveto
          48 66 -18 -13 33 hvcurveto
          19 50 -36 14 -62 15 -48 2 rlinecurve
          10 83 rlineto
          -48 hlineto
          -11 -84 -82 -9 -77 -51 -12 -100 rlinecurve
          -12 -103 42 -42 117 -31 97 -25 33 -22 -10 -83 rrcurveto
          -85 -9 -65 -48 -83 hhcurveto
          -47 -62 17 12 -37 hvcurveto
          -18 -50 41 -13 50 -13 52 -3 rlinecurve
          -11 -84 rlineto
          48 hlineto
          10 85 98 9 77 66 12 107 rlinecurve
          endchar
        </CharString>
        <CharString name="dotlessi">
          -29 callsubr
          359 52 rmoveto
          -9 callsubr
          50 313 rlineto
          -172 -47 callsubr
          47 26 0 47 hhcurveto
          -44 -23 callsubr
          endchar
        </CharString>
        <CharString name="e">
          -76 callsubr
          endchar
        </CharString>
        <CharString name="eacute">
          -82 callsubr
          -57 369 -71 callsubr
        </CharString>
        <CharString name="ecircumflex">
          -43 callsubr
          127 -21 162 -93 callsubr
          -100 334 -95 callsubr
        </CharString>
        <CharString name="edieresis">
          -76 callsubr
          -83 389 -107 callsubr
        </CharString>
        <CharString name="egrave">
          -82 callsubr
          -18 464 -70 callsubr
        </CharString>
        <CharString name="eight">
          -10 52 257 50 242 52 hstem
          50 58 -45 56 266 56 -44 58 vstem
          306 643 rmoveto
          -127 -72 -68 -98 -16 hvcurveto
          -11 -66 18 -52 59 -35 -70 -25 -48 -48 -15 -85 rrcurveto
          -106 -18 58 -70 133 hhcurveto
          133 79 65 106 18 hvcurveto
          14 84 -25 54 -68 27 72 28 35 51 12 67 rrcurveto
          98 16 -52 73 -125 hhcurveto
          -224 -477 rmoveto
          83 14 60 50 93 hhcurveto
          96 41 -50 -83 -14 hvcurveto
          -77 -13 -60 -47 -94 hhcurveto
          -94 -42 47 77 13 hvcurveto
          62 306 rmoveto
          71 12 49 48 93 hhcurveto
          93 32 -48 -71 -12 hvcurveto
          -71 -12 -47 -52 -95 hhcurveto
          -95 -30 56 67 12 hvcurveto
          endchar
        </CharString>
        <CharString name="ellipsis">
          -122 -21 hstem
          57 hmoveto
          -7 callsubr
          140 -81 rmoveto
          -7 callsubr
          141 -81 rmoveto
          -7 callsubr
          endchar
        </CharString>
        <CharString name="equal">
          163 44 124 44 hstem
          33 207 0 callsubr
          -403 168 0 callsubr
          endchar
        </CharString>
        <CharString name="exclam">
          -6 90 604 -20 hstem
          185 76 -71 66 vstem
          322 688 rmoveto
          -64 hlineto
          -75 -500 rlineto
          46 hlineto
          -86 -194 rmoveto
          69 hlineto
          13 86 rlineto
          -69 hlineto
          endchar
        </CharString>
        <CharString name="exclamdown">
          -192 -20 206 90 hstem
          185 76 -71 66 vstem
          158 -193 rmoveto
          64 hlineto
          75 500 rlineto
          -46 hlineto
          86 194 rmoveto
          -69 hlineto
          -13 -86 rlineto
          69 hlineto
          endchar
        </CharString>
        <CharString name="f">
          -16 callsubr
          146 52 hstem
          152 53 vstem
          164 425 rmoveto
          -45 callsubr
          166 -61 callsubr
          -168 hlineto
          94 11 32 52 63 hhcurveto
          26 33 -8 -8 26 hvcurveto
          18 51 rlineto
          10 -31 -34 7 -34 hhcurveto
          -93 -55 -65 -133 -15 hvcurveto
          -89 -47 callsubr
          90 hlineto
          endchar
        </CharString>
        <CharString name="fi">
          -171 -21 182 52 383 50 149 49 hstem
          10 -11 callsubr
          -7 -50 rlineto
          89 hlineto
          -45 callsubr
          219 hlineto
          -34 -23 callsubr
          -6 50 rlineto
          -9 callsubr
          40 313 rlineto
          -273 hlineto
          99 10 37 50 82 hhcurveto
          55 72 -20 0 hvcurveto
          15 49 rlineto
          0 -69 20 -70 -105 -67 -66 -132 -13 vhcurveto
          endchar
        </CharString>
        <CharString name="five">
          -10 52 311 52 174 55 hstem
          81 60 247 58 vstem
          421 209 rmoveto
          121 17 -55 75 -115 hhcurveto
          -40 -46 -18 -25 -37 hvcurveto
          35 219 rlineto
          268 hlineto
          10 53 rlineto
          -320 hlineto
          -54 -328 36 -11 rlineto
          29 37 48 29 50 hhcurveto
          85 38 -55 -89 -12 hvcurveto
          -99 -13 -59 -68 -94 hhcurveto
          -49 -58 21 20 -41 hvcurveto
          -25 -51 rlineto
          -21 47 69 -21 51 hhcurveto
          128 80 85 134 19 hvcurveto
          endchar
        </CharString>
        <CharString name="fl">
          -171 -21 181 52 384 50 149 49 hstem
          312 -11 callsubr
          -170 hlineto
          99 10 37 50 82 46 36 0 47 hhcurveto
          -59 -465 rlineto
          -114 -16 -9 -32 callsubr
          51 rlineto
          -7 -20 -44 -13 -30 hhcurveto
          -75 13 4 callsubr
          65 512 rlineto
          -186 hlineto
          -105 -67 -66 -132 -13 hvcurveto
          -89 hlineto
          -7 -50 rlineto
          89 hlineto
          -45 callsubr
          168 hlineto
          endchar
        </CharString>
        <CharString name="four">
          11 -21 137 52 455 -20 hstem
          324 55 vstem
          441 179 rmoveto
          -82 hlineto
          34 210 rlineto
          -53 hlineto
          -34 -210 rlineto
          -199 hlineto
          224 455 rlineto
          -54 hlineto
          -229 -460 rlineto
          -47 249 vlineto
          -22 -137 -12 callsubr
          23 137 rlineto
          83 hlineto
          endchar
        </CharString>
        <CharString name="g">
          -200 52 149 52 376 52 hstem
          52 57 266 53 vstem
          329 -24 rmoveto
          -89 -13 -63 -35 -76 hhcurveto
          -48 -56 23 15 -35 hvcurveto
          -23 -50 rlineto
          -17 39 70 -23 48 hhcurveto
          106 90 53 124 14 hvcurveto
          81 498 -41 callsubr
          -5 -29 rlineto
          16 -27 -48 19 -36 hhcurveto
          -123 -82 -93 -150 -18 hvcurveto
          -152 -17 53 -85 114 hhcurveto
          40 44 19 19 33 hvcurveto
          9 58 rmoveto
          -24 -35 -43 -20 -37 hhcurveto
          -86 -34 71 114 13 hvcurveto
          116 15 59 75 91 hhcurveto
          36 46 -22 -17 24 hvcurveto
          endchar
        </CharString>
        <CharString name="grave">
          -26 callsubr
          175 717 -70 callsubr
        </CharString>
        <CharString name="greater">
          62 -21 512 -20 hstem
          45 82 rmoveto
          20 -41 391 235 4 32 -326 245 -31 -41 297 -220 rlineto
          endchar
        </CharString>
        <CharString name="greaterequal">
          364 161 hstem
          399 345 rmoveto
          -364 -149 18 -41 411 170 rlineto
          39 vlineto
          -411 161 -18 -41 rlineto
          34 -451 rmoveto
          70 -4 rlineto
          283 hlineto
          7 34 -70 5 rlineto
          -283 hlineto
          endchar
        </CharString>
        <CharString name="guillemotleft">
          56 -21 386 -20 hstem
          278 25 rmoveto
          10 64 -126 128 166 129 11 70 -221 -171 -6 -49 rlineto
          320 -149 rmoveto
          11 64 -128 116 164 117 11 70 -219 -161 -6 -45 rlineto
          endchar
        </CharString>
        <CharString name="guillemotright">
          56 -21 386 -20 hstem
          296 434 rmoveto
          -11 -65 125 -130 -165 -127 -11 -72 220 171 7 52 rlineto
          -321 149 rmoveto
          -11 -65 127 -118 -163 -115 -12 -72 219 161 7 48 rlineto
          endchar
        </CharString>
        <CharString name="guilsinglleft">
          60 -21 378 -20 hstem
          305 39 rmoveto
          10 64 -126 127 166 122 10 68 -220 -167 -6 -47 rlineto
          endchar
        </CharString>
        <CharString name="guilsinglright">
          60 -21 378 -20 hstem
          193 417 rmoveto
          -10 -65 125 -126 -165 -123 -10 -67 220 167 6 47 rlineto
          endchar
        </CharString>
        <CharString name="h">
          13 callsubr
          183 -20 hstem
          78 53 245 53 vstem
          161 388 rmoveto
          20 46 61 21 46 hhcurveto
          61 20 -48 -64 -8 hvcurveto
          -55 -317 rlineto
          50 hlineto
          55 317 rlineto
          100 12 -34 64 -95 hhcurveto
          -44 -60 -21 -21 -47 hvcurveto
          37 226 2 callsubr
          endchar
        </CharString>
        <CharString name="hyphen">
          213 54 hstem
          104 265 rmoveto
          -9 -52 rlineto
          286 hlineto
          9 52 rlineto
          endchar
        </CharString>
        <CharString name="i">
          -29 callsubr
          231 616 -40 callsubr
          134 -614 -92 callsubr
          endchar
        </CharString>
        <CharString name="iacute">
          -57 callsubr
          -206 570 -71 callsubr
        </CharString>
        <CharString name="icircumflex">
          -16 callsubr
          95 89 -51 11 callsubr
          115 177 hintmask 11101100
          -87 callsubr
          hintmask 11011100
          -274 535 -95 callsubr
        </CharString>
        <CharString name="idieresis">
          -10 52 383 50 135 74 hstem
          107 73 120 74 vstem
          -87 callsubr
          -252 590 -107 callsubr
        </CharString>
        <CharString name="igrave">
          -57 callsubr
          -187 665 -70 callsubr
        </CharString>
        <CharString name="j">
          -167 -21 614 49 96 87 hstem
          279 53 vstem
          371 -11 callsubr
          -181 -47 callsubr
          47 35 0 47 hhcurveto
          -72 -434 -15 -86 -38 -30 -119 -16 rlinecurve
          -47 vlineto
          141 18 63 21 22 139 rrcurveto
          13 626 -40 callsubr
          endchar
        </CharString>
        <CharString name="k">
          12 callsubr
          209 -20 hstem
          97 53 vstem
          374 -11 callsubr
          -35 -48 -77 -100 -48 -57 -62 -10 rcurveline
          66 405 2 callsubr
          35 212 69 9 31 -56 56 -113 25 -52 rlinecurve
          60 hlineto
          -32 66 -65 126 -33 61 50 55 88 112 38 55 rrcurveto
          endchar
        </CharString>
        <CharString name="l">
          -10 50 575 49 hstem
          228 53 vstem
          193 160 rmoveto
          -114 -17 -9 -34 callsubr
          14 4 callsubr
          82 503 rlineto
          -182 hlineto
          -7 -50 rlineto
          47 35 0 47 hhcurveto
          endchar
        </CharString>
        <CharString name="less">
          52 -21 512 -20 hstem
          464 502 rmoveto
          -21 41 -391 -235 -4 -32 327 -245 30 41 -298 220 rlineto
          endchar
        </CharString>
        <CharString name="lessequal">
          364 161 hstem
          463 484 rmoveto
          -18 41 -411 -161 rlineto
          -39 vlineto
          411 -170 18 41 -364 149 rlineto
          -23 -316 rmoveto
          -7 34 51 5 rlineto
          302 hlineto
          7 -35 -51 -4 rlineto
          endchar
        </CharString>
        <CharString name="m">
          21 -21 430 51 hstem
          35 53 137 53 136 53 vstem
          119 -11 callsubr
          -50 hlineto
          -78 -475 -12 callsubr
          66 397 rlineto
          13 18 37 19 24 hhcurveto
          55 -3 -47 -64 -8 hvcurveto
          -27 -166 rlineto
          53 hlineto
          27 166 4 30 1 27 -1 23 rlinecurve
          14 22 31 19 25 hhcurveto
          56 -1 -49 -64 -8 hvcurveto
          -53 -318 rlineto
          53 hlineto
          51 318 rlineto
          102 13 -10 61 -92 hhcurveto
          -36 -39 -26 -17 -23 hvcurveto
          27 -12 -22 16 -40 hhcurveto
          -36 -26 -20 -16 -23 hvcurveto
          endchar
        </CharString>
        <CharString name="mu">
          -36 callsubr
          57 -49 rmoveto
          -10 -65 -11 -19 -22 -40 39 -19 rcurveline
          30 40 14 34 11 66 11 85 rcurveline
          -24 13 21 -19 63 hhcurveto
          48 61 20 36 42 hvcurveto
          -5 -46 rlineto
          51 hlineto
          75 475 rlineto
          -53 hlineto
          -60 -370 rlineto
          -38 -46 -57 -28 -48 hhcurveto
          -82 -9 53 62 9 hvcurveto
          51 321 rlineto
          -55 hlineto
          endchar
        </CharString>
        <CharString name="n">
          13 callsubr
          hstem
          92 53 245 53 vstem
          -54 callsubr
          endchar
        </CharString>
        <CharString name="nine">
          -17 11 245 52 300 52 hstem
          63 58 275 58 vstem
          83 438 rmoveto
          -129 -20 61 -70 123 hhcurveto
          57 34 23 33 38 hvcurveto
          -44 -98 -55 -64 -150 -139 65 -11 rcurveline
          155 146 97 117 30 189 rrcurveto
          130 21 -59 78 -124 hhcurveto
          -119 -90 -84 -121 -20 hvcurveto
          58 hmoveto
          91 15 60 62 88 hhcurveto
          94 34 -54 -102 -16 hvcurveto
          -83 -13 -70 -61 -78 hhcurveto
          -98 -31 50 97 15 hvcurveto
          endchar
        </CharString>
        <CharString name="notequal">
          50 -21 140 44 124 44 129 -20 hstem
          214 221 rmoveto
          -40 -42 rlineto
          1 1 1 1 hhcurveto
          -28 -24 -98 -96 32 -31 38 39 39 38 40 38 rlinecurve
          66 66 rlineto
          -1 0 0 0 hvcurveto
          43 42 59 59 43 45 rlineto
          -1 0 0 0 hvcurveto
          32 26 97 97 -30 31 -163 -161 -10 -10 -11 -10 -10 -10 rlinecurve
          0 1 1 0 vhcurveto
          -43 -42 -20 -19 -20 -19 -18 -19 rlinecurve
          -151 -8 3 callsubr
          -421 168 3 callsubr
          endchar
        </CharString>
        <CharString name="ntilde">
          13 callsubr
          125 15 callsubr
          hstemhm
          92 53 245 53 hintmask 11001100
          -54 callsubr
          hintmask 00110000
          268 259 -98 callsubr
        </CharString>
        <CharString name="numbersign">
          0 236 -44 44 202 43 -43 217 hstemhm
          hintmask 10100000
          298 236 rmoveto
          -144 hlineto
          52 202 rlineto
          144 hlineto
          hintmask 01100000
          129 -246 rmoveto
          7 44 rlineto
          -136 hlineto
          52 202 rlineto
          137 hlineto
          7 43 rlineto
          -132 hlineto
          hintmask 10010000
          45 174 -41 callsubr
          hintmask 10100000
          -45 -174 rlineto
          -145 hlineto
          hintmask 10010000
          46 174 -41 callsubr
          hintmask 10100000
          -46 -174 rlineto
          -142 hlineto
          -7 -43 rlineto
          138 hlineto
          -52 -202 rlineto
          -138 hlineto
          hintmask 01100000
          -7 -44 rlineto
          133 hlineto
          hintmask 10100000
          -52 -192 -12 callsubr
          hintmask 01100000
          52 192 rlineto
          144 hlineto
          hintmask 10100000
          -52 -192 rlineto
          53 hlineto
          hintmask 01100000
          51 192 rlineto
          endchar
        </CharString>
        <CharString name="o">
          -72 callsubr
          endchar
        </CharString>
        <CharString name="oacute">
          -77 callsubr
          -72 192 -71 callsubr
        </CharString>
        <CharString name="ocircumflex">
          -37 callsubr
          127 -21 162 -20 -99 callsubr
          -130 157 -95 callsubr
        </CharString>
        <CharString name="odieresis">
          -72 callsubr
          -98 212 -107 callsubr
        </CharString>
        <CharString name="oe">
          -10 53 -31 -21 226 50 160 54 hstemhm
          8 52 168 43 hintmask 10111100
          181 481 rmoveto
          -112 -61 -178 -156 -98 25 -59 79 108 14 112 -1 hvcurveto
          hintmask 01111100
          -16 6 -94 100 45 63 24 0 vhcurveto
          -8 50 rlineto
          hintmask 10111100
          0 -56 -22 -37 -71 -12 83 91 7 vhcurveto
          206 hlineto
          11 50 rlineto
          137 19 -24 77 -95 hhcurveto
          -98 -18 -97 0 5 -2 92 -89 hvcurveto
          -121 -335 rmoveto
          122 45 159 67 43 13 -37 -64 -121 -42 -165 -67 -43 -16 42 64 vhcurveto
          320 283 rmoveto
          59 6 -60 -102 -14 hvcurveto
          -152 hlineto
          85 14 12 77 75 hhcurveto
          endchar
        </CharString>
        <CharString name="ograve">
          -77 callsubr
          -43 287 -70 callsubr
        </CharString>
        <CharString name="one">
          0 51 584 -20 hstem
          250 59 vstem
          400 hmoveto
          8 50 rlineto
          -134 hlineto
          96 585 rlineto
          -50 hlineto
          -198 -87 11 -48 171 76 -86 -526 rlineto
          -161 -47 callsubr
          endchar
        </CharString>
        <CharString name="otilde">
          -37 callsubr
          125 15 callsubr
          -99 callsubr
          165 264 -98 callsubr
        </CharString>
        <CharString name="p">
          -192 -20 203 52 386 52 hstem
          64 53 266 57 vstem
          2 -192 rmoveto
          52 hlineto
          34 210 rlineto
          -12 25 45 -15 36 hhcurveto
          123 101 95 150 18 hvcurveto
          152 17 -49 93 -117 hhcurveto
          -48 -53 -29 -24 -34 hvcurveto
          -2 54 -51 -6 -2 -87 rlineto
          180 40 rmoveto
          89 29 -79 -114 -14 hvcurveto
          -116 -14 -78 -75 -91 hhcurveto
          -31 -49 15 12 -21 hvcurveto
          49 299 rlineto
          29 38 50 29 43 hhcurveto
          endchar
        </CharString>
        <CharString name="paragraph">
          21 -21 298 29 317 51 hstem
          36 30 167 41 120 65 vstem
          345 hmoveto
          135 700 rlineto
          -35 hlineto
          -135 -700 rlineto
          -125 hmoveto
          135 700 rlineto
          -24 hlineto
          -213 -67 -91 -188 -108 61 -40 124 -9 hvcurveto
          -51 -264 rlineto
          57 296 rmoveto
          -104 8 -52 30 93 vvcurveto
          178 52 60 176 3 vhcurveto
          endchar
        </CharString>
        <CharString name="parenleft">
          -160 -20 997 -21 hstem
          179 57 vstem
          385 796 rmoveto
          -94 -122 -81 -139 -25 -217 -26 -216 49 -139 65 -123 48 28 rcurveline
          -57 108 -50 130 25 212 25 213 79 129 83 109 rrcurveto
          endchar
        </CharString>
        <CharString name="parenright">
          -135 -21 956 -20 hstem
          262 57 vstem
          114 -156 rmoveto
          94 123 79 139 26 216 25 217 -47 139 -66 122 -47 -27 rcurveline
          57 -109 48 -129 -24 -213 -26 -212 -77 -130 -83 -108 rrcurveto
          endchar
        </CharString>
        <CharString name="percent">
          -4 callsubr
          10 -20 hstemhm
          19 52 146 50 -35 51 146 51 hintmask 1110111010000000
          399 6 callsubr
          -356 -665 rlineto
          56 hlineto
          356 665 rlineto
          -188 -123 rmoveto
          hintmask 1111011010000000
          -51 callsubr
          hintmask 1111010110000000
          -81 -58 -63 -79 -66 40 -30 callsubr
          -43 -17 callsubr
          52 hvcurveto
          endchar
        </CharString>
        <CharString name="period">
          -122 -21 hstem
          170 hmoveto
          90 hlineto
          14 112 rlineto
          -90 hlineto
          endchar
        </CharString>
        <CharString name="perthousand">
          -4 callsubr
          hstemhm
          -1 51 -10 52 102 51 -7 50 -31 51 142 51 hintmask 1111101011000000
          257 vmoveto
          52 vlineto
          500 172 rlineto
          -51 vlineto
          -255 -285 rmoveto
          67 -39 45 -68 -81 -58 -63 -79 -66 40 -49 69 80 57 63 82 vhcurveto
          -111 70 rmoveto
          44 16 -33 -40 -57 -27 -42 -54 -43 -17 callsubr
          52 hvcurveto
          hintmask 1111010101000000
          154 327 rmoveto
          -51 callsubr
          hintmask 1111101011000000
          -81 -54 -63 -80 -65 36 -30 callsubr
          -42 -17 32 42 53 27 45 53 hvcurveto
          endchar
        </CharString>
        <CharString name="plus">
          82 -21 199 46 198 -20 hstem
          224 50 vstem
          456 260 rmoveto
          10 46 rlineto
          -190 hlineto
          32 198 rlineto
          -48 hlineto
          -33 -198 rlineto
          -185 hlineto
          -9 -46 rlineto
          186 hlineto
          -32 -199 rlineto
          49 hlineto
          33 199 rlineto
          endchar
        </CharString>
        <CharString name="plusminus">
          54 42 202 43 161 -20 hstem
          225 50 vstem
          500 300 rmoveto
          7 43 rlineto
          -210 hlineto
          25 161 rlineto
          -50 hlineto
          -25 -161 rlineto
          -210 hlineto
          -7 -43 rlineto
          210 hlineto
          -24 -152 rlineto
          50 hlineto
          24 152 rlineto
          171 -246 rmoveto
          7 42 rlineto
          -470 hlineto
          -7 -42 rlineto
          endchar
        </CharString>
        <CharString name="product">
          21 -21 604 50 hstem
          89 55 206 55 vstem
          499 604 rmoveto
          8 50 rlineto
          -468 -47 callsubr
          74 -3 callsubr
          206 -3 callsubr
          endchar
        </CharString>
        <CharString name="q">
          -171 -21 183 52 390 48 hstem
          60 54 vstem
          462 447 rmoveto
          33 -72 -71 1 -36 hhcurveto
          -141 -82 -132 -163 -121 57 -74 100 49 44 28 23 34 hvcurveto
          -38 -234 -12 callsubr
          -131 235 rmoveto
          -75 -38 61 91 125 65 113 108 36 57 -12 -11 24 hvcurveto
          -50 -306 rlineto
          -30 -38 -47 -31 -42 hhcurveto
          endchar
        </CharString>
        <CharString name="question">
          0 93 544 52 hstem
          177 58 111 58 vstem
          136 hmoveto
          81 hlineto
          11 93 rlineto
          -80 hlineto
          270 446 rmoveto
          99 13 -69 51 -87 hhcurveto
          -67 -54 -35 -51 -68 hvcurveto
          24 -41 rlineto
          44 58 47 31 53 hhcurveto
          65 38 -38 -63 -8 hvcurveto
          -6 -56 -15 -27 -68 -60 -82 -73 -17 -22 -8 -60 -1 -19 -1 -38 2 -16 50 2 rcurveline
          1 18 3 32 2 16 4 46 16 19 60 54 90 79 17 32 8 76 rrcurveto
          endchar
        </CharString>
        <CharString name="questiondown">
          -200 52 544 93 hstem
          77 58 111 58 vstem
          370 490 rmoveto
          -81 hlineto
          -11 -93 rlineto
          80 hlineto
          -270 -446 rmoveto
          -99 -13 69 -51 87 hhcurveto
          67 54 35 51 68 hvcurveto
          -24 41 rlineto
          -44 -58 -47 -31 -53 hhcurveto
          -65 -38 38 63 8 hvcurveto
          6 56 15 27 68 60 82 73 17 22 8 60 1 19 1 38 -2 16 -50 -2 rcurveline
          -1 -18 -3 -32 -2 -16 -4 -46 -16 -19 -60 -54 -90 -79 -17 -32 -8 -76 rrcurveto
          endchar
        </CharString>
        <CharString name="quotedbl">
          463 217 hstem
          143 53 107 53 vstem
          213 680 -22 callsubr
          182 217 -22 callsubr
          endchar
        </CharString>
        <CharString name="quotedblleft">
          470 -21 236 -20 hstem
          398 656 rmoveto
          -40 11 -112 -201 61 -17 rlineto
          -49 225 -8 callsubr
        </CharString>
        <CharString name="quotedblright">
          467 -21 236 -20 hstem
          117 -11 callsubr
          40 -11 112 10 callsubr
          49 -225 rmoveto
          41 -11 111 10 callsubr
          endchar
        </CharString>
        <CharString name="quoteleft">
          475 -21 218 -20 hstem
          340 661 -8 callsubr
        </CharString>
        <CharString name="quoteright">
          482 -21 218 -20 hstem
          189 472 rmoveto
          40 -11 112 10 callsubr
          endchar
        </CharString>
        <CharString name="quotesingle">
          484 -21 217 -20 hstem
          221 53 vstem
          287 680 -22 callsubr
          endchar
        </CharString>
        <CharString name="r">
          -16 callsubr
          6 -20 hstemhm
          91 149 hintmask 10110000
          258 367 rmoveto
          42 24 94 27 52 4 7 59 rcurveline
          -59 -6 -86 -32 -42 -26 rrcurveto
          hintmask 11010000
          10 58 rlineto
          -146 -47 callsubr
          93 hlineto
          -69 -425 -12 callsubr
          endchar
        </CharString>
        <CharString name="ring">
          568 38 114 39 hstem
          54 42 124 43 vstem
          350 678 -69 callsubr
        </CharString>
        <CharString name="s">
          -9 51 388 53 hstem
          128 53 179 53 vstem
          86 21 rmoveto
          -16 45 64 -14 49 hhcurveto
          103 66 67 87 70 -37 30 -87 23 hvcurveto
          -83 23 -25 20 34 vvcurveto
          53 51 32 62 38 55 -13 -13 37 vhcurveto
          14 51 rlineto
          15 -38 -61 13 -45 hhcurveto
          -95 -71 -51 -94 -59 41 -35 98 -25 hvcurveto
          68 -17 25 -21 -38 vvcurveto
          -67 -49 -34 -67 -42 -64 19 14 -38 vhcurveto
          endchar
        </CharString>
        <CharString name="semicolon">
          -6 80 hstem
          85 64 vstem
          208 303 rmoveto
          87 hlineto
          14 102 rlineto
          -88 hlineto
          -54 -405 rmoveto
          35 hlineto
          -9 -42 -19 -33 -34 -44 23 -24 rcurveline
          57 57 31 59 8 57 10 72 rcurveline
          -88 hlineto
          endchar
        </CharString>
        <CharString name="seven">
          21 -21 582 52 hstem
          443 543 rmoveto
          10 29 8 33 2 29 rrcurveto
          -352 hlineto
          -31 -105 48 -4 21 57 rlineto
          246 hlineto
          -20 -120 -228 -203 -30 -259 rrcurveto
          59 hlineto
          25 219 181 166 61 158 rrcurveto
          endchar
        </CharString>
        <CharString name="six">
          -10 52 310 52 198 49 hstem
          54 58 284 58 vstem
          136 347 rmoveto
          45 104 58 62 189 88 -9 50 rcurveline
          -237 -94 -97 -117 -38 -232 rrcurveto
          -140 -22 63 -78 115 hhcurveto
          136 80 74 141 28 hvcurveto
          129 26 -64 70 -129 hhcurveto
          -67 -42 -28 -29 -35 hvcurveto
          253 -142 rmoveto
          -101 -16 -58 -62 -94 hhcurveto
          -100 -39 54 112 20 hvcurveto
          94 17 75 50 78 hhcurveto
          93 40 -50 -97 -16 hvcurveto
          endchar
        </CharString>
        <CharString name="slash">
          -20 -21 751 -20 hstem
          508 688 rmoveto
          -43 22 -479 -729 40 -22 rlineto
          endchar
        </CharString>
        <CharString name="space">
          endchar
        </CharString>
        <CharString name="sterling">
          -11 51 -18 53 232 51 235 51 hstem
          103 56 9 56 vstem
          154 51 rmoveto
          26 29 9 55 13 74 19 109 rcurveline
          177 -61 callsubr
          -188 hlineto
          1 49 2 70 3 18 18 132 144 -1 90 -31 18 53 rcurveline
          -130 41 -182 -16 -13 -179 -2 -24 -4 -63 -1 -49 rrcurveto
          -72 -47 callsubr
          81 hlineto
          -43 -242 0 -23 -80 -2 -8 -51 rcurveline
          407 hlineto
          8 51 rlineto
          endchar
        </CharString>
        <CharString name="t">
          -10 52 376 50 125 -20 hstem
          160 53 vstem
          147 160 rmoveto
          -114 -17 -8 -34 callsubr
          15 4 callsubr
          41 256 rlineto
          160 -61 callsubr
          -160 hlineto
          21 125 -54 -10 -19 -115 rlineto
          -92 -47 callsubr
          92 hlineto
          endchar
        </CharString>
        <CharString name="three">
          -10 52 549 52 hstem
          361 57 -33 59 vstem
          145 294 rmoveto
          0 81 12 30 94 42 -39 -96 -15 vhcurveto
          -89 -15 -71 -40 -87 hhcurveto
          -52 -71 16 19 -46 hvcurveto
          -23 -47 rlineto
          -20 50 75 -20 59 hhcurveto
          129 87 56 129 21 hvcurveto
          15 91 -34 59 -77 13 rrcurveto
          2 vlineto
          75 29 37 37 9 79 12 108 -75 57 -109 -6 -54 -3 -37 -9 -62 -23 15 -45 rcurveline
          0 76 29 61 70 56 -31 -81 -9 vhcurveto
          -9 -77 -65 -37 -109 -16 -74 -11 rcurveline
          endchar
        </CharString>
        <CharString name="tilde">
          606 15 callsubr
          hstem
          390 694 -98 callsubr
        </CharString>
        <CharString name="trademark">
          314 -21 258 39 hstemhm
          82 48 77 48 177 48 hintmask 00000000
          hintmask 11101000
          6 551 rmoveto
          82 hlineto
          -50 -258 rlineto
          48 hlineto
          50 258 rlineto
          42 hlineto
          8 39 rlineto
          -172 hlineto
          480 hmoveto
          -48 hlineto
          -121 -187 rlineto
          hintmask 11011000
          -56 187 rlineto
          -48 hlineto
          -58 -297 rlineto
          41 hlineto
          14 70 15 80 14 70 53 -178 rcurveline
          25 hlineto
          114 177 -14 -70 -15 -79 -14 -70 rlinecurve
          40 hlineto
          endchar
        </CharString>
        <CharString name="two">
          0 57 534 52 hstem
          365 59 vstem
          448 459 rmoveto
          118 18 -58 66 -103 hhcurveto
          -63 -62 -37 -40 -56 hvcurveto
          20 -40 rlineto
          36 56 50 29 44 hhcurveto
          80 36 -53 -79 -15 hvcurveto
          -30 -161 -223 -62 -91 -187 rrcurveto
          -49 348 vlineto
          9 55 rlineto
          -293 hlineto
          78 145 226 70 29 189 rrcurveto
          endchar
        </CharString>
        <CharString name="u">
          -62 callsubr
          endchar
        </CharString>
        <CharString name="uacute">
          -67 callsubr
          -130 581 -71 callsubr
        </CharString>
        <CharString name="ucircumflex">
          -24 callsubr
          153 -21 162 -86 callsubr
          -192 546 -95 callsubr
        </CharString>
        <CharString name="udieresis">
          -62 callsubr
          -166 601 -107 callsubr
        </CharString>
        <CharString name="ugrave">
          -67 callsubr
          -104 676 -70 callsubr
        </CharString>
        <CharString name="underscore">
          -128 43 hstem
          11 -128 rmoveto
          472 hlineto
          6 43 rlineto
          -472 hlineto
          endchar
        </CharString>
        <CharString name="v">
          0 48 427 -20 hstem
          94 -11 callsubr
          74 -475 rlineto
          95 hlineto
          206 475 rlineto
          -57 hlineto
          -182 -427 rlineto
          -17 hlineto
          -62 427 rlineto
          endchar
        </CharString>
        <CharString name="w">
          12 callsubr
          hstem
          438 -11 callsubr
          -110 -427 rlineto
          -17 hlineto
          -35 241 rlineto
          -54 hlineto
          -92 -241 rlineto
          -17 hlineto
          1 427 rlineto
          -49 hlineto
          -4 -475 rlineto
          100 hlineto
          74 207 rlineto
          7 hlineto
          24 -207 rlineto
          101 hlineto
          120 475 rlineto
          endchar
        </CharString>
        <CharString name="x">
          12 callsubr
          hstem
          97 -11 callsubr
          120 -234 -181 -241 rlineto
          65 hlineto
          144 203 98 -203 rlineto
          64 hlineto
          -122 241 170 234 rlineto
          -64 hlineto
          -136 -196 -93 196 rlineto
          endchar
        </CharString>
        <CharString name="y">
          -58 callsubr
          endchar
        </CharString>
        <CharString name="ydieresis">
          -58 callsubr
          3 167 -107 callsubr
        </CharString>
        <CharString name="yen">
          21 -21 168 50 93 50 294 -20 hstemhm
          65 213 -55 55 -55 211 hintmask 00000000
          hintmask 11110100
          248 323 rmoveto
          244 332 rlineto
          -65 hlineto
          -201 -281 rlineto
          -2 hlineto
          -113 281 rlineto
          -59 hlineto
          141 -332 -51 -323 rlineto
          55 hlineto
          hintmask 11111000
          -178 218 -10 callsubr
          hintmask 11111000
          -347 143 -10 callsubr
          endchar
        </CharString>
        <CharString name="z">
          0 51 373 51 hstem
          118 425 rmoveto
          243 hlineto
          -298 -384 3 -41 rlineto
          326 -61 callsubr
          -267 hlineto
          299 384 rlineto
          41 -306 vlineto
          endchar
        </CharString>
        <CharString name="zero">
          -10 52 549 9 callsubr
          302 646 rmoveto
          -131 -1 -70 -76 -41 -253 rrcurveto
          -236 -38 45 -92 130 hhcurveto
          135 70 80 248 40 hvcurveto
          38 234 -43 97 -135 -1 rrcurveto
          -97 -603 rmoveto
          -100 -17 81 192 31 hvcurveto
          194 31 44 81 100 hhcurveto
          105 14 -83 -192 -31 hvcurveto
          -201 -32 -46 -72 -99 hhcurveto
          endchar
        </CharString>
</ttFont>
